<?xml version="1.0" standalone="no"?>
<!DOCTYPE svg PUBLIC "-//W3C//DTD SVG 20010904//EN"
 "http://www.w3.org/TR/2001/REC-SVG-20010904/DTD/svg10.dtd">
<svg version="1.0" xmlns="http://www.w3.org/2000/svg"
 width="700.000000pt" height="700.000000pt" viewBox="0 0 700.000000 700.000000"
 preserveAspectRatio="xMidYMid meet">
<metadata>
Created by potrace 1.14, written by Peter Selinger 2001-2017
</metadata>
<g transform="translate(0.000000,700.000000) scale(0.100000,-0.100000)"
fill="#000000" stroke="none">
<path d="M1760 6989 c-476 -49 -950 -290 -1257 -639 -125 -141 -205 -260 -288
-425 -115 -229 -180 -452 -205 -704 -14 -141 -14 -3301 0 -3442 94 -947 822
-1675 1769 -1769 141 -14 3301 -14 3442 0 255 25 479 91 709 207 598 303 993
883 1060 1562 14 141 14 3301 0 3442 -24 242 -89 470 -194 684 -192 390 -485
686 -866 878 -231 116 -455 182 -709 207 -128 12 -3337 11 -3461 -1z m1485
-1962 c-11 -7 -188 -101 -394 -208 -205 -107 -375 -199 -377 -204 -5 -11 432
-1204 445 -1218 4 -4 157 319 341 718 l333 725 22 -38 c11 -20 198 -362 415
-760 l394 -723 34 88 c121 312 432 1140 432 1149 0 6 -161 88 -357 182 -606
290 -593 283 -548 278 777 -92 2062 -251 2067 -256 5 -3 -155 -52 -355 -109
-199 -57 -382 -110 -407 -117 l-46 -13 -479 -1240 c-264 -682 -483 -1237 -486
-1233 -4 4 -167 347 -364 762 -196 415 -360 758 -364 762 -3 3 -170 -340 -371
-763 -200 -423 -367 -769 -370 -769 -3 0 -248 576 -545 1281 -412 981 -543
1283 -559 1290 -12 5 -185 59 -386 119 -201 61 -372 114 -380 117 -12 5 652
60 2310 192 10 1 8 -3 -5 -12z"/>
</g>
</svg>
