<svg width="28" height="19" viewBox="0 0 28 19" fill="none" xmlns="http://www.w3.org/2000/svg">
<path d="M28 0.654766L27.987 1.18841C26.7578 1.22347 26.0184 1.87959 25.546 2.95133C24.4524 5.47975 21.0273 13.4497 18.7527 18.6377H18.1578L14.5752 10.1908C13.1536 12.9728 11.5876 15.8775 10.236 18.6377C10.2227 18.6509 9.57978 18.6377 9.57978 18.6246C7.52821 13.8259 5.37604 9.06225 3.32003 4.25042C2.82144 3.0825 1.15915 1.18841 0.0131479 1.20156C0.0131479 1.06594 0 0.76415 0 0.580383H7.08204V1.18841C6.24215 1.2365 4.77245 1.77021 5.18795 2.68442C6.14586 4.85845 9.71978 13.1959 10.6821 15.3088C11.3382 14.0096 13.2105 10.532 13.976 9.06219C13.368 7.82434 11.4126 3.20497 10.7915 2.0633C10.3671 1.28465 9.21243 1.21471 8.35057 1.20156V0.593531L14.584 0.606679V1.17971C13.7354 1.206 12.9175 1.52089 13.298 2.32139C14.1246 4.07115 14.6364 5.3003 15.402 6.9013C15.6469 6.42883 16.92 3.86554 17.506 2.49194C17.8954 1.59089 17.3353 1.24088 15.8175 1.206C15.8306 1.04847 15.8175 0.755446 15.8306 0.611001C17.7729 0.597914 20.6906 0.597914 21.2155 0.584766V1.17965C20.2312 1.21465 19.2121 1.73953 18.674 2.56633L16.0845 7.93804C16.3643 8.64237 18.8533 14.1845 19.1113 14.7927L24.4656 2.43077C24.0895 1.42027 22.8734 1.20156 22.4009 1.1928V0.584766L27.9914 0.632853L28 0.654766Z" fill="black"/>
</svg>
